<?xml version="1.0" encoding="UTF-8" standalone="no"?>
<!DOCTYPE svg PUBLIC "-//W3C//DTD SVG 1.1//EN"
 "http://www.w3.org/Graphics/SVG/1.1/DTD/svg11.dtd">
<!-- Generated by graphviz version 2.36.0 (20140111.2315)
 -->
<!-- Title: controllers_diagram Pages: 1 -->
<svg width="770pt" height="664pt"
 viewBox="0.00 0.00 770.00 664.00" xmlns="http://www.w3.org/2000/svg" xmlns:xlink="http://www.w3.org/1999/xlink">
<g id="graph0" class="graph" transform="scale(1 1) rotate(0) translate(4 660)">
<title>controllers_diagram</title>
<polygon fill="none" stroke="none" points="-4,4 -4,-660 766,-660 766,4 -4,4"/>
<!-- _diagram_info -->
<g id="node1" class="node"><title>_diagram_info</title>
<text text-anchor="start" x="59" y="-63.6" font-family="Times,serif" font-size="13.00">Controllers diagram</text>
<text text-anchor="start" x="59" y="-49.6" font-family="Times,serif" font-size="13.00">Date: Dec 10 2016 &#45; 17:48</text>
<text text-anchor="start" x="59" y="-35.6" font-family="Times,serif" font-size="13.00">Migration version: 20161210221211</text>
<text text-anchor="start" x="59" y="-21.6" font-family="Times,serif" font-size="13.00">Generated by RailRoady 1.5.2</text>
<text text-anchor="start" x="59" y="-7.6" font-family="Times,serif" font-size="13.00">http://railroady.prestonlee.com</text>
</g>
<!-- CarrerUsersController -->
<g id="node2" class="node"><title>CarrerUsersController</title>
<path fill="none" stroke="black" d="M403,-136.5C403,-136.5 516,-136.5 516,-136.5 522,-136.5 528,-142.5 528,-148.5 528,-148.5 528,-337.5 528,-337.5 528,-343.5 522,-349.5 516,-349.5 516,-349.5 403,-349.5 403,-349.5 397,-349.5 391,-343.5 391,-337.5 391,-337.5 391,-148.5 391,-148.5 391,-142.5 397,-136.5 403,-136.5"/>
<text text-anchor="middle" x="459.5" y="-334.3" font-family="Times,serif" font-size="14.00">CarrerUsersController</text>
<polyline fill="none" stroke="black" points="391,-326.5 528,-326.5 "/>
<text text-anchor="start" x="399" y="-311.3" font-family="Times,serif" font-size="14.00">create</text>
<text text-anchor="start" x="399" y="-296.3" font-family="Times,serif" font-size="14.00">destroy</text>
<text text-anchor="start" x="399" y="-281.3" font-family="Times,serif" font-size="14.00">edit</text>
<text text-anchor="start" x="399" y="-266.3" font-family="Times,serif" font-size="14.00">index</text>
<text text-anchor="start" x="399" y="-251.3" font-family="Times,serif" font-size="14.00">new</text>
<text text-anchor="start" x="399" y="-236.3" font-family="Times,serif" font-size="14.00">show</text>
<text text-anchor="start" x="399" y="-221.3" font-family="Times,serif" font-size="14.00">update</text>
<polyline fill="none" stroke="black" points="391,-213.5 528,-213.5 "/>
<polyline fill="none" stroke="black" points="391,-189.5 528,-189.5 "/>
<text text-anchor="start" x="399" y="-174.3" font-family="Times,serif" font-size="14.00">_layout</text>
<text text-anchor="start" x="399" y="-159.3" font-family="Times,serif" font-size="14.00">carrer_user_params</text>
<text text-anchor="start" x="399" y="-144.3" font-family="Times,serif" font-size="14.00">set_carrer_user</text>
</g>
<!-- ApplicationController -->
<g id="node3" class="node"><title>ApplicationController</title>
<path fill="none" stroke="black" d="M624,-561.5C624,-561.5 736,-561.5 736,-561.5 742,-561.5 748,-567.5 748,-573.5 748,-573.5 748,-643.5 748,-643.5 748,-649.5 742,-655.5 736,-655.5 736,-655.5 624,-655.5 624,-655.5 618,-655.5 612,-649.5 612,-643.5 612,-643.5 612,-573.5 612,-573.5 612,-567.5 618,-561.5 624,-561.5"/>
<text text-anchor="middle" x="680" y="-640.3" font-family="Times,serif" font-size="14.00">ApplicationController</text>
<polyline fill="none" stroke="black" points="612,-632.5 748,-632.5 "/>
<polyline fill="none" stroke="black" points="612,-608.5 748,-608.5 "/>
<polyline fill="none" stroke="black" points="612,-584.5 748,-584.5 "/>
<text text-anchor="start" x="620" y="-569.3" font-family="Times,serif" font-size="14.00">_layout</text>
</g>
<!-- UsersController -->
<g id="node4" class="node"><title>UsersController</title>
<path fill="none" stroke="black" d="M114,-425.5C114,-425.5 193,-425.5 193,-425.5 199,-425.5 205,-431.5 205,-437.5 205,-437.5 205,-611.5 205,-611.5 205,-617.5 199,-623.5 193,-623.5 193,-623.5 114,-623.5 114,-623.5 108,-623.5 102,-617.5 102,-611.5 102,-611.5 102,-437.5 102,-437.5 102,-431.5 108,-425.5 114,-425.5"/>
<text text-anchor="middle" x="153.5" y="-608.3" font-family="Times,serif" font-size="14.00">UsersController</text>
<polyline fill="none" stroke="black" points="102,-600.5 205,-600.5 "/>
<text text-anchor="start" x="110" y="-585.3" font-family="Times,serif" font-size="14.00">create</text>
<text text-anchor="start" x="110" y="-570.3" font-family="Times,serif" font-size="14.00">destroy</text>
<text text-anchor="start" x="110" y="-555.3" font-family="Times,serif" font-size="14.00">edit</text>
<text text-anchor="start" x="110" y="-540.3" font-family="Times,serif" font-size="14.00">index</text>
<text text-anchor="start" x="110" y="-525.3" font-family="Times,serif" font-size="14.00">show</text>
<text text-anchor="start" x="110" y="-510.3" font-family="Times,serif" font-size="14.00">update</text>
<polyline fill="none" stroke="black" points="102,-502.5 205,-502.5 "/>
<polyline fill="none" stroke="black" points="102,-478.5 205,-478.5 "/>
<text text-anchor="start" x="110" y="-463.3" font-family="Times,serif" font-size="14.00">_layout</text>
<text text-anchor="start" x="110" y="-448.3" font-family="Times,serif" font-size="14.00">set_user</text>
<text text-anchor="start" x="110" y="-433.3" font-family="Times,serif" font-size="14.00">user_params</text>
</g>
<!-- CarrersController -->
<g id="node5" class="node"><title>CarrersController</title>
<path fill="none" stroke="black" d="M250,-374.5C250,-374.5 338,-374.5 338,-374.5 344,-374.5 350,-380.5 350,-386.5 350,-386.5 350,-575.5 350,-575.5 350,-581.5 344,-587.5 338,-587.5 338,-587.5 250,-587.5 250,-587.5 244,-587.5 238,-581.5 238,-575.5 238,-575.5 238,-386.5 238,-386.5 238,-380.5 244,-374.5 250,-374.5"/>
<text text-anchor="middle" x="294" y="-572.3" font-family="Times,serif" font-size="14.00">CarrersController</text>
<polyline fill="none" stroke="black" points="238,-564.5 350,-564.5 "/>
<text text-anchor="start" x="246" y="-549.3" font-family="Times,serif" font-size="14.00">create</text>
<text text-anchor="start" x="246" y="-534.3" font-family="Times,serif" font-size="14.00">destroy</text>
<text text-anchor="start" x="246" y="-519.3" font-family="Times,serif" font-size="14.00">edit</text>
<text text-anchor="start" x="246" y="-504.3" font-family="Times,serif" font-size="14.00">index</text>
<text text-anchor="start" x="246" y="-489.3" font-family="Times,serif" font-size="14.00">new</text>
<text text-anchor="start" x="246" y="-474.3" font-family="Times,serif" font-size="14.00">show</text>
<text text-anchor="start" x="246" y="-459.3" font-family="Times,serif" font-size="14.00">update</text>
<polyline fill="none" stroke="black" points="238,-451.5 350,-451.5 "/>
<polyline fill="none" stroke="black" points="238,-427.5 350,-427.5 "/>
<text text-anchor="start" x="246" y="-412.3" font-family="Times,serif" font-size="14.00">_layout</text>
<text text-anchor="start" x="246" y="-397.3" font-family="Times,serif" font-size="14.00">carrer_params</text>
<text text-anchor="start" x="246" y="-382.3" font-family="Times,serif" font-size="14.00">set_carrer</text>
</g>
<!-- SubjectsController -->
<g id="node6" class="node"><title>SubjectsController</title>
<path fill="none" stroke="black" d="M454,-391.5C454,-391.5 548,-391.5 548,-391.5 554,-391.5 560,-397.5 560,-403.5 560,-403.5 560,-592.5 560,-592.5 560,-598.5 554,-604.5 548,-604.5 548,-604.5 454,-604.5 454,-604.5 448,-604.5 442,-598.5 442,-592.5 442,-592.5 442,-403.5 442,-403.5 442,-397.5 448,-391.5 454,-391.5"/>
<text text-anchor="middle" x="501" y="-589.3" font-family="Times,serif" font-size="14.00">SubjectsController</text>
<polyline fill="none" stroke="black" points="442,-581.5 560,-581.5 "/>
<text text-anchor="start" x="450" y="-566.3" font-family="Times,serif" font-size="14.00">create</text>
<text text-anchor="start" x="450" y="-551.3" font-family="Times,serif" font-size="14.00">destroy</text>
<text text-anchor="start" x="450" y="-536.3" font-family="Times,serif" font-size="14.00">edit</text>
<text text-anchor="start" x="450" y="-521.3" font-family="Times,serif" font-size="14.00">index</text>
<text text-anchor="start" x="450" y="-506.3" font-family="Times,serif" font-size="14.00">new</text>
<text text-anchor="start" x="450" y="-491.3" font-family="Times,serif" font-size="14.00">show</text>
<text text-anchor="start" x="450" y="-476.3" font-family="Times,serif" font-size="14.00">update</text>
<polyline fill="none" stroke="black" points="442,-468.5 560,-468.5 "/>
<polyline fill="none" stroke="black" points="442,-444.5 560,-444.5 "/>
<text text-anchor="start" x="450" y="-429.3" font-family="Times,serif" font-size="14.00">_layout</text>
<text text-anchor="start" x="450" y="-414.3" font-family="Times,serif" font-size="14.00">set_subject</text>
<text text-anchor="start" x="450" y="-399.3" font-family="Times,serif" font-size="14.00">subject_params</text>
</g>
<!-- SubjectCarrerUsersController -->
<g id="node7" class="node"><title>SubjectCarrerUsersController</title>
<path fill="none" stroke="black" d="M199,-119.5C199,-119.5 353,-119.5 353,-119.5 359,-119.5 365,-125.5 365,-131.5 365,-131.5 365,-320.5 365,-320.5 365,-326.5 359,-332.5 353,-332.5 353,-332.5 199,-332.5 199,-332.5 193,-332.5 187,-326.5 187,-320.5 187,-320.5 187,-131.5 187,-131.5 187,-125.5 193,-119.5 199,-119.5"/>
<text text-anchor="middle" x="276" y="-317.3" font-family="Times,serif" font-size="14.00">SubjectCarrerUsersController</text>
<polyline fill="none" stroke="black" points="187,-309.5 365,-309.5 "/>
<text text-anchor="start" x="195" y="-294.3" font-family="Times,serif" font-size="14.00">create</text>
<text text-anchor="start" x="195" y="-279.3" font-family="Times,serif" font-size="14.00">destroy</text>
<text text-anchor="start" x="195" y="-264.3" font-family="Times,serif" font-size="14.00">edit</text>
<text text-anchor="start" x="195" y="-249.3" font-family="Times,serif" font-size="14.00">index</text>
<text text-anchor="start" x="195" y="-234.3" font-family="Times,serif" font-size="14.00">new</text>
<text text-anchor="start" x="195" y="-219.3" font-family="Times,serif" font-size="14.00">show</text>
<text text-anchor="start" x="195" y="-204.3" font-family="Times,serif" font-size="14.00">update</text>
<polyline fill="none" stroke="black" points="187,-196.5 365,-196.5 "/>
<polyline fill="none" stroke="black" points="187,-172.5 365,-172.5 "/>
<text text-anchor="start" x="195" y="-157.3" font-family="Times,serif" font-size="14.00">_layout</text>
<text text-anchor="start" x="195" y="-142.3" font-family="Times,serif" font-size="14.00">set_subject_carrer_user</text>
<text text-anchor="start" x="195" y="-127.3" font-family="Times,serif" font-size="14.00">subject_carrer_user_params</text>
</g>
<!-- PagesController -->
<g id="node8" class="node"><title>PagesController</title>
<path fill="none" stroke="black" d="M607,-408.5C607,-408.5 687,-408.5 687,-408.5 693,-408.5 699,-414.5 699,-420.5 699,-420.5 699,-519.5 699,-519.5 699,-525.5 693,-531.5 687,-531.5 687,-531.5 607,-531.5 607,-531.5 601,-531.5 595,-525.5 595,-519.5 595,-519.5 595,-420.5 595,-420.5 595,-414.5 601,-408.5 607,-408.5"/>
<text text-anchor="middle" x="647" y="-516.3" font-family="Times,serif" font-size="14.00">PagesController</text>
<polyline fill="none" stroke="black" points="595,-508.5 699,-508.5 "/>
<text text-anchor="start" x="603" y="-493.3" font-family="Times,serif" font-size="14.00">carrers</text>
<text text-anchor="start" x="603" y="-478.3" font-family="Times,serif" font-size="14.00">index</text>
<text text-anchor="start" x="603" y="-463.3" font-family="Times,serif" font-size="14.00">profile</text>
<polyline fill="none" stroke="black" points="595,-455.5 699,-455.5 "/>
<polyline fill="none" stroke="black" points="595,-431.5 699,-431.5 "/>
<text text-anchor="start" x="603" y="-416.3" font-family="Times,serif" font-size="14.00">_layout</text>
</g>
<!-- Users::SessionsController -->
<g id="node9" class="node"><title>Users::SessionsController</title>
<path fill="none" stroke="black" d="M12,-289.5C12,-289.5 145,-289.5 145,-289.5 151,-289.5 157,-295.5 157,-301.5 157,-301.5 157,-371.5 157,-371.5 157,-377.5 151,-383.5 145,-383.5 145,-383.5 12,-383.5 12,-383.5 6,-383.5 0,-377.5 0,-371.5 0,-371.5 0,-301.5 0,-301.5 0,-295.5 6,-289.5 12,-289.5"/>
<text text-anchor="middle" x="78.5" y="-368.3" font-family="Times,serif" font-size="14.00">Users::SessionsController</text>
<polyline fill="none" stroke="black" points="0,-360.5 157,-360.5 "/>
<polyline fill="none" stroke="black" points="0,-336.5 157,-336.5 "/>
<polyline fill="none" stroke="black" points="0,-312.5 157,-312.5 "/>
<text text-anchor="start" x="8" y="-297.3" font-family="Times,serif" font-size="14.00">_layout</text>
</g>
<!-- Users::ConfirmationsController -->
<g id="node10" class="node"><title>Users::ConfirmationsController</title>
<path fill="none" stroke="black" d="M573,-136.5C573,-136.5 738,-136.5 738,-136.5 744,-136.5 750,-142.5 750,-148.5 750,-148.5 750,-218.5 750,-218.5 750,-224.5 744,-230.5 738,-230.5 738,-230.5 573,-230.5 573,-230.5 567,-230.5 561,-224.5 561,-218.5 561,-218.5 561,-148.5 561,-148.5 561,-142.5 567,-136.5 573,-136.5"/>
<text text-anchor="middle" x="655.5" y="-215.3" font-family="Times,serif" font-size="14.00">Users::ConfirmationsController</text>
<polyline fill="none" stroke="black" points="561,-207.5 750,-207.5 "/>
<polyline fill="none" stroke="black" points="561,-183.5 750,-183.5 "/>
<polyline fill="none" stroke="black" points="561,-159.5 750,-159.5 "/>
<text text-anchor="start" x="569" y="-144.3" font-family="Times,serif" font-size="14.00">_layout</text>
</g>
<!-- Users::OmniauthCallbacksController -->
<g id="node11" class="node"><title>Users::OmniauthCallbacksController</title>
<path fill="none" stroke="black" d="M403,-0.5C403,-0.5 597,-0.5 597,-0.5 603,-0.5 609,-6.5 609,-12.5 609,-12.5 609,-82.5 609,-82.5 609,-88.5 603,-94.5 597,-94.5 597,-94.5 403,-94.5 403,-94.5 397,-94.5 391,-88.5 391,-82.5 391,-82.5 391,-12.5 391,-12.5 391,-6.5 397,-0.5 403,-0.5"/>
<text text-anchor="middle" x="500" y="-79.3" font-family="Times,serif" font-size="14.00">Users::OmniauthCallbacksController</text>
<polyline fill="none" stroke="black" points="391,-71.5 609,-71.5 "/>
<polyline fill="none" stroke="black" points="391,-47.5 609,-47.5 "/>
<polyline fill="none" stroke="black" points="391,-23.5 609,-23.5 "/>
<text text-anchor="start" x="399" y="-8.3" font-family="Times,serif" font-size="14.00">_layout</text>
</g>
<!-- Users::UnlocksController -->
<g id="node12" class="node"><title>Users::UnlocksController</title>
<path fill="none" stroke="black" d="M12,-153.5C12,-153.5 143,-153.5 143,-153.5 149,-153.5 155,-159.5 155,-165.5 155,-165.5 155,-235.5 155,-235.5 155,-241.5 149,-247.5 143,-247.5 143,-247.5 12,-247.5 12,-247.5 6,-247.5 0,-241.5 0,-235.5 0,-235.5 0,-165.5 0,-165.5 0,-159.5 6,-153.5 12,-153.5"/>
<text text-anchor="middle" x="77.5" y="-232.3" font-family="Times,serif" font-size="14.00">Users::UnlocksController</text>
<polyline fill="none" stroke="black" points="0,-224.5 155,-224.5 "/>
<polyline fill="none" stroke="black" points="0,-200.5 155,-200.5 "/>
<polyline fill="none" stroke="black" points="0,-176.5 155,-176.5 "/>
<text text-anchor="start" x="8" y="-161.3" font-family="Times,serif" font-size="14.00">_layout</text>
</g>
<!-- Users::PasswordsController -->
<g id="node13" class="node"><title>Users::PasswordsController</title>
<path fill="none" stroke="black" d="M607,-272.5C607,-272.5 750,-272.5 750,-272.5 756,-272.5 762,-278.5 762,-284.5 762,-284.5 762,-354.5 762,-354.5 762,-360.5 756,-366.5 750,-366.5 750,-366.5 607,-366.5 607,-366.5 601,-366.5 595,-360.5 595,-354.5 595,-354.5 595,-284.5 595,-284.5 595,-278.5 601,-272.5 607,-272.5"/>
<text text-anchor="middle" x="678.5" y="-351.3" font-family="Times,serif" font-size="14.00">Users::PasswordsController</text>
<polyline fill="none" stroke="black" points="595,-343.5 762,-343.5 "/>
<polyline fill="none" stroke="black" points="595,-319.5 762,-319.5 "/>
<polyline fill="none" stroke="black" points="595,-295.5 762,-295.5 "/>
<text text-anchor="start" x="603" y="-280.3" font-family="Times,serif" font-size="14.00">_layout</text>
</g>
</g>
</svg>
