<?xml version="1.0" encoding="UTF-8" standalone="no"?>
<!DOCTYPE svg PUBLIC "-//W3C//DTD SVG 1.1//EN"
 "http://www.w3.org/Graphics/SVG/1.1/DTD/svg11.dtd">
<!-- Generated by graphviz version 2.36.0 (20140111.2315)
 -->
<!-- Title: models_diagram Pages: 1 -->
<svg width="1250pt" height="424pt"
 viewBox="0.00 0.00 1250.00 424.00" xmlns="http://www.w3.org/2000/svg" xmlns:xlink="http://www.w3.org/1999/xlink">
<g id="graph0" class="graph" transform="scale(1 1) rotate(0) translate(4 420)">
<title>models_diagram</title>
<polygon fill="none" stroke="none" points="-4,4 -4,-420 1246,-420 1246,4 -4,4"/>
<!-- _diagram_info -->
<g id="node1" class="node"><title>_diagram_info</title>
<text text-anchor="start" x="8" y="-319.6" font-family="Times,serif" font-size="13.00">Models diagram</text>
<text text-anchor="start" x="8" y="-305.6" font-family="Times,serif" font-size="13.00">Date: Dec 10 2016 &#45; 17:48</text>
<text text-anchor="start" x="8" y="-291.6" font-family="Times,serif" font-size="13.00">Migration version: 20161210221211</text>
<text text-anchor="start" x="8" y="-277.6" font-family="Times,serif" font-size="13.00">Generated by RailRoady 1.5.2</text>
<text text-anchor="start" x="8" y="-263.6" font-family="Times,serif" font-size="13.00">http://railroady.prestonlee.com</text>
</g>
<!-- CarrerUser -->
<g id="node2" class="node"><title>CarrerUser</title>
<path fill="none" stroke="black" d="M279,-8.5C279,-8.5 499,-8.5 499,-8.5 505,-8.5 511,-14.5 511,-20.5 511,-20.5 511,-117.5 511,-117.5 511,-123.5 505,-129.5 499,-129.5 499,-129.5 279,-129.5 279,-129.5 273,-129.5 267,-123.5 267,-117.5 267,-117.5 267,-20.5 267,-20.5 267,-14.5 273,-8.5 279,-8.5"/>
<text text-anchor="middle" x="389" y="-114.3" font-family="Times,serif" font-size="14.00">CarrerUser</text>
<polyline fill="none" stroke="black" points="267,-106.5 511,-106.5 "/>
<text text-anchor="start" x="275" y="-91.3" font-family="Times,serif" font-size="14.00">id :integer</text>
<text text-anchor="start" x="275" y="-76.3" font-family="Times,serif" font-size="14.00">points :integer</text>
<text text-anchor="start" x="275" y="-61.3" font-family="Times,serif" font-size="14.00">user_id :integer</text>
<text text-anchor="start" x="275" y="-46.3" font-family="Times,serif" font-size="14.00">carrer_id :integer</text>
<text text-anchor="start" x="275" y="-31.3" font-family="Times,serif" font-size="14.00">created_at :timestamp without time zone</text>
<text text-anchor="start" x="275" y="-16.3" font-family="Times,serif" font-size="14.00">updated_at :timestamp without time zone</text>
</g>
<!-- Carrer -->
<g id="node3" class="node"><title>Carrer</title>
<path fill="none" stroke="black" d="M576,-249.5C576,-249.5 796,-249.5 796,-249.5 802,-249.5 808,-255.5 808,-261.5 808,-261.5 808,-328.5 808,-328.5 808,-334.5 802,-340.5 796,-340.5 796,-340.5 576,-340.5 576,-340.5 570,-340.5 564,-334.5 564,-328.5 564,-328.5 564,-261.5 564,-261.5 564,-255.5 570,-249.5 576,-249.5"/>
<text text-anchor="middle" x="686" y="-325.3" font-family="Times,serif" font-size="14.00">Carrer</text>
<polyline fill="none" stroke="black" points="564,-317.5 808,-317.5 "/>
<text text-anchor="start" x="572" y="-302.3" font-family="Times,serif" font-size="14.00">id :integer</text>
<text text-anchor="start" x="572" y="-287.3" font-family="Times,serif" font-size="14.00">name :character varying</text>
<text text-anchor="start" x="572" y="-272.3" font-family="Times,serif" font-size="14.00">created_at :timestamp without time zone</text>
<text text-anchor="start" x="572" y="-257.3" font-family="Times,serif" font-size="14.00">updated_at :timestamp without time zone</text>
</g>
<!-- SubjectCarrerUser -->
<g id="node4" class="node"><title>SubjectCarrerUser</title>
<path fill="none" stroke="black" d="M838,-1C838,-1 1058,-1 1058,-1 1064,-1 1070,-7 1070,-13 1070,-13 1070,-125 1070,-125 1070,-131 1064,-137 1058,-137 1058,-137 838,-137 838,-137 832,-137 826,-131 826,-125 826,-125 826,-13 826,-13 826,-7 832,-1 838,-1"/>
<text text-anchor="middle" x="948" y="-121.8" font-family="Times,serif" font-size="14.00">SubjectCarrerUser</text>
<polyline fill="none" stroke="black" points="826,-114 1070,-114 "/>
<text text-anchor="start" x="834" y="-98.8" font-family="Times,serif" font-size="14.00">id :integer</text>
<text text-anchor="start" x="834" y="-83.8" font-family="Times,serif" font-size="14.00">points :integer</text>
<text text-anchor="start" x="834" y="-68.8" font-family="Times,serif" font-size="14.00">subject_id :integer</text>
<text text-anchor="start" x="834" y="-53.8" font-family="Times,serif" font-size="14.00">carrer_user_id :integer</text>
<text text-anchor="start" x="834" y="-38.8" font-family="Times,serif" font-size="14.00">created_at :timestamp without time zone</text>
<text text-anchor="start" x="834" y="-23.8" font-family="Times,serif" font-size="14.00">updated_at :timestamp without time zone</text>
<text text-anchor="start" x="834" y="-8.8" font-family="Times,serif" font-size="14.00">name :character varying</text>
</g>
<!-- Subject -->
<g id="node5" class="node"><title>Subject</title>
<path fill="none" stroke="black" d="M838,-242C838,-242 1058,-242 1058,-242 1064,-242 1070,-248 1070,-254 1070,-254 1070,-336 1070,-336 1070,-342 1064,-348 1058,-348 1058,-348 838,-348 838,-348 832,-348 826,-342 826,-336 826,-336 826,-254 826,-254 826,-248 832,-242 838,-242"/>
<text text-anchor="middle" x="948" y="-332.8" font-family="Times,serif" font-size="14.00">Subject</text>
<polyline fill="none" stroke="black" points="826,-325 1070,-325 "/>
<text text-anchor="start" x="834" y="-309.8" font-family="Times,serif" font-size="14.00">id :integer</text>
<text text-anchor="start" x="834" y="-294.8" font-family="Times,serif" font-size="14.00">name :character varying</text>
<text text-anchor="start" x="834" y="-279.8" font-family="Times,serif" font-size="14.00">carrer_id :integer</text>
<text text-anchor="start" x="834" y="-264.8" font-family="Times,serif" font-size="14.00">created_at :timestamp without time zone</text>
<text text-anchor="start" x="834" y="-249.8" font-family="Times,serif" font-size="14.00">updated_at :timestamp without time zone</text>
</g>
<!-- Subject&#45;&gt;SubjectCarrerUser -->
<g id="edge1" class="edge"><title>Subject&#45;&gt;SubjectCarrerUser</title>
<path fill="none" stroke="#6868fd" d="M948,-233.549C948,-207.055 948,-175.639 948,-147.458"/>
<ellipse fill="none" stroke="#6868fd" cx="948" cy="-237.765" rx="4" ry="4"/>
<polygon fill="#6868fd" stroke="#6868fd" points="948,-147.236 952.5,-137.236 948,-142.236 948,-137.236 948,-137.236 948,-137.236 948,-142.236 943.5,-137.236 948,-147.236 948,-147.236"/>
</g>
<!-- User -->
<g id="node6" class="node"><title>User</title>
<path fill="none" stroke="black" d="M244.5,-174.5C244.5,-174.5 533.5,-174.5 533.5,-174.5 539.5,-174.5 545.5,-180.5 545.5,-186.5 545.5,-186.5 545.5,-403.5 545.5,-403.5 545.5,-409.5 539.5,-415.5 533.5,-415.5 533.5,-415.5 244.5,-415.5 244.5,-415.5 238.5,-415.5 232.5,-409.5 232.5,-403.5 232.5,-403.5 232.5,-186.5 232.5,-186.5 232.5,-180.5 238.5,-174.5 244.5,-174.5"/>
<text text-anchor="middle" x="389" y="-400.3" font-family="Times,serif" font-size="14.00">User</text>
<polyline fill="none" stroke="black" points="232.5,-392.5 545.5,-392.5 "/>
<text text-anchor="start" x="240.5" y="-377.3" font-family="Times,serif" font-size="14.00">id :integer</text>
<text text-anchor="start" x="240.5" y="-362.3" font-family="Times,serif" font-size="14.00">email :character varying</text>
<text text-anchor="start" x="240.5" y="-347.3" font-family="Times,serif" font-size="14.00">encrypted_password :character varying</text>
<text text-anchor="start" x="240.5" y="-332.3" font-family="Times,serif" font-size="14.00">reset_password_token :character varying</text>
<text text-anchor="start" x="240.5" y="-317.3" font-family="Times,serif" font-size="14.00">reset_password_sent_at :timestamp without time zone</text>
<text text-anchor="start" x="240.5" y="-302.3" font-family="Times,serif" font-size="14.00">remember_created_at :timestamp without time zone</text>
<text text-anchor="start" x="240.5" y="-287.3" font-family="Times,serif" font-size="14.00">sign_in_count :integer</text>
<text text-anchor="start" x="240.5" y="-272.3" font-family="Times,serif" font-size="14.00">current_sign_in_at :timestamp without time zone</text>
<text text-anchor="start" x="240.5" y="-257.3" font-family="Times,serif" font-size="14.00">last_sign_in_at :timestamp without time zone</text>
<text text-anchor="start" x="240.5" y="-242.3" font-family="Times,serif" font-size="14.00">current_sign_in_ip :inet</text>
<text text-anchor="start" x="240.5" y="-227.3" font-family="Times,serif" font-size="14.00">last_sign_in_ip :inet</text>
<text text-anchor="start" x="240.5" y="-212.3" font-family="Times,serif" font-size="14.00">created_at :timestamp without time zone</text>
<text text-anchor="start" x="240.5" y="-197.3" font-family="Times,serif" font-size="14.00">updated_at :timestamp without time zone</text>
<text text-anchor="start" x="240.5" y="-182.3" font-family="Times,serif" font-size="14.00">role :integer</text>
</g>
<!-- User&#45;&gt;CarrerUser -->
<g id="edge2" class="edge"><title>User&#45;&gt;CarrerUser</title>
<path fill="none" stroke="#ca5bd2" d="M389,-166.111C389,-157.115 389,-148.259 389,-139.781"/>
<ellipse fill="none" stroke="#ca5bd2" cx="389" cy="-170.458" rx="4" ry="4"/>
<polygon fill="#ca5bd2" stroke="#ca5bd2" points="389,-139.643 393.5,-129.643 389,-134.643 389,-129.643 389,-129.643 389,-129.643 389,-134.643 384.5,-129.644 389,-139.643 389,-139.643"/>
</g>
<!-- ApplicationRecord -->
<g id="node7" class="node"><title>ApplicationRecord</title>
<ellipse fill="none" stroke="black" cx="1165" cy="-295" rx="77.0154" ry="18"/>
<text text-anchor="middle" x="1165" y="-291.3" font-family="Times,serif" font-size="14.00">ApplicationRecord</text>
</g>
</g>
</svg>
