<?xml version="1.0" encoding="UTF-8" standalone="no"?>
<!DOCTYPE svg PUBLIC "-//W3C//DTD SVG 1.1//EN"
 "http://www.w3.org/Graphics/SVG/1.1/DTD/svg11.dtd">
<!-- Generated by graphviz version 2.36.0 (20140111.2315)
 -->
<!-- Title: models_diagram Pages: 1 -->
<svg width="720pt" height="158pt"
 viewBox="0.00 0.00 720.00 158.00" xmlns="http://www.w3.org/2000/svg" xmlns:xlink="http://www.w3.org/1999/xlink">
<g id="graph0" class="graph" transform="scale(1 1) rotate(0) translate(4 154)">
<title>models_diagram</title>
<polygon fill="none" stroke="none" points="-4,4 -4,-154 716,-154 716,4 -4,4"/>
<!-- _diagram_info -->
<g id="node1" class="node"><title>_diagram_info</title>
<text text-anchor="start" x="8" y="-135.6" font-family="Times,serif" font-size="13.00">Models diagram</text>
<text text-anchor="start" x="8" y="-121.6" font-family="Times,serif" font-size="13.00">Date: Dec 10 2016 &#45; 17:48</text>
<text text-anchor="start" x="8" y="-107.6" font-family="Times,serif" font-size="13.00">Migration version: 20161210221211</text>
<text text-anchor="start" x="8" y="-93.6" font-family="Times,serif" font-size="13.00">Generated by RailRoady 1.5.2</text>
<text text-anchor="start" x="8" y="-79.6" font-family="Times,serif" font-size="13.00">http://railroady.prestonlee.com</text>
</g>
<!-- CarrerUser -->
<g id="node2" class="node"><title>CarrerUser</title>
<ellipse fill="none" stroke="black" cx="259" cy="-18" rx="50.0684" ry="18"/>
<text text-anchor="middle" x="259" y="-14.3" font-family="Times,serif" font-size="14.00">CarrerUser</text>
</g>
<!-- Carrer -->
<g id="node3" class="node"><title>Carrer</title>
<ellipse fill="none" stroke="black" cx="337" cy="-111" rx="33.2209" ry="18"/>
<text text-anchor="middle" x="337" y="-107.3" font-family="Times,serif" font-size="14.00">Carrer</text>
</g>
<!-- SubjectCarrerUser -->
<g id="node4" class="node"><title>SubjectCarrerUser</title>
<ellipse fill="none" stroke="black" cx="425" cy="-18" rx="76.0649" ry="18"/>
<text text-anchor="middle" x="425" y="-14.3" font-family="Times,serif" font-size="14.00">SubjectCarrerUser</text>
</g>
<!-- Subject -->
<g id="node5" class="node"><title>Subject</title>
<ellipse fill="none" stroke="black" cx="425" cy="-111" rx="37.0701" ry="18"/>
<text text-anchor="middle" x="425" y="-107.3" font-family="Times,serif" font-size="14.00">Subject</text>
</g>
<!-- Subject&#45;&gt;SubjectCarrerUser -->
<g id="edge1" class="edge"><title>Subject&#45;&gt;SubjectCarrerUser</title>
<path fill="none" stroke="#fb6df9" d="M425,-84.7285C425,-72.7246 425,-58.3622 425,-46.1291"/>
<ellipse fill="none" stroke="#fb6df9" cx="425" cy="-88.8836" rx="4" ry="4"/>
<polygon fill="#fb6df9" stroke="#fb6df9" points="425,-46.0397 429.5,-36.0396 425,-41.0397 425,-36.0397 425,-36.0397 425,-36.0397 425,-41.0397 420.5,-36.0397 425,-46.0397 425,-46.0397"/>
</g>
<!-- User -->
<g id="node6" class="node"><title>User</title>
<ellipse fill="none" stroke="black" cx="259" cy="-111" rx="26.949" ry="18"/>
<text text-anchor="middle" x="259" y="-107.3" font-family="Times,serif" font-size="14.00">User</text>
</g>
<!-- User&#45;&gt;CarrerUser -->
<g id="edge2" class="edge"><title>User&#45;&gt;CarrerUser</title>
<path fill="none" stroke="#ad676f" d="M259,-84.7285C259,-72.7246 259,-58.3622 259,-46.1291"/>
<ellipse fill="none" stroke="#ad676f" cx="259" cy="-88.8836" rx="4" ry="4"/>
<polygon fill="#ad676f" stroke="#ad676f" points="259,-46.0397 263.5,-36.0396 259,-41.0397 259,-36.0397 259,-36.0397 259,-36.0397 259,-41.0397 254.5,-36.0397 259,-46.0397 259,-46.0397"/>
</g>
<!-- View -->
<g id="node7" class="node"><title>View</title>
<ellipse fill="none" stroke="black" cx="510" cy="-111" rx="29.3479" ry="18"/>
<text text-anchor="middle" x="510" y="-107.3" font-family="Times,serif" font-size="14.00">View</text>
</g>
<!-- ApplicationRecord -->
<g id="node8" class="node"><title>ApplicationRecord</title>
<ellipse fill="none" stroke="black" cx="635" cy="-111" rx="77.0154" ry="18"/>
<text text-anchor="middle" x="635" y="-107.3" font-family="Times,serif" font-size="14.00">ApplicationRecord</text>
</g>
</g>
</svg>
