<?xml version="1.0" encoding="UTF-8" standalone="no"?>
<!DOCTYPE svg PUBLIC "-//W3C//DTD SVG 1.1//EN"
 "http://www.w3.org/Graphics/SVG/1.1/DTD/svg11.dtd">
<!-- Generated by graphviz version 2.36.0 (20140111.2315)
 -->
<!-- Title: models_diagram Pages: 1 -->
<svg width="1017pt" height="424pt"
 viewBox="0.00 0.00 1017.00 424.00" xmlns="http://www.w3.org/2000/svg" xmlns:xlink="http://www.w3.org/1999/xlink">
<g id="graph0" class="graph" transform="scale(1 1) rotate(0) translate(4 420)">
<title>models_diagram</title>
<polygon fill="none" stroke="none" points="-4,4 -4,-420 1013,-420 1013,4 -4,4"/>
<!-- CarrerUser -->
<g id="node1" class="node"><title>CarrerUser</title>
<path fill="none" stroke="black" d="M46,-8.5C46,-8.5 266,-8.5 266,-8.5 272,-8.5 278,-14.5 278,-20.5 278,-20.5 278,-117.5 278,-117.5 278,-123.5 272,-129.5 266,-129.5 266,-129.5 46,-129.5 46,-129.5 40,-129.5 34,-123.5 34,-117.5 34,-117.5 34,-20.5 34,-20.5 34,-14.5 40,-8.5 46,-8.5"/>
<text text-anchor="middle" x="156" y="-114.3" font-family="Times,serif" font-size="14.00">CarrerUser</text>
<polyline fill="none" stroke="black" points="34,-106.5 278,-106.5 "/>
<text text-anchor="start" x="42" y="-91.3" font-family="Times,serif" font-size="14.00">id :integer</text>
<text text-anchor="start" x="42" y="-76.3" font-family="Times,serif" font-size="14.00">points :integer</text>
<text text-anchor="start" x="42" y="-61.3" font-family="Times,serif" font-size="14.00">user_id :integer</text>
<text text-anchor="start" x="42" y="-46.3" font-family="Times,serif" font-size="14.00">carrer_id :integer</text>
<text text-anchor="start" x="42" y="-31.3" font-family="Times,serif" font-size="14.00">created_at :timestamp without time zone</text>
<text text-anchor="start" x="42" y="-16.3" font-family="Times,serif" font-size="14.00">updated_at :timestamp without time zone</text>
</g>
<!-- Carrer -->
<g id="node2" class="node"><title>Carrer</title>
<path fill="none" stroke="black" d="M343,-249.5C343,-249.5 563,-249.5 563,-249.5 569,-249.5 575,-255.5 575,-261.5 575,-261.5 575,-328.5 575,-328.5 575,-334.5 569,-340.5 563,-340.5 563,-340.5 343,-340.5 343,-340.5 337,-340.5 331,-334.5 331,-328.5 331,-328.5 331,-261.5 331,-261.5 331,-255.5 337,-249.5 343,-249.5"/>
<text text-anchor="middle" x="453" y="-325.3" font-family="Times,serif" font-size="14.00">Carrer</text>
<polyline fill="none" stroke="black" points="331,-317.5 575,-317.5 "/>
<text text-anchor="start" x="339" y="-302.3" font-family="Times,serif" font-size="14.00">id :integer</text>
<text text-anchor="start" x="339" y="-287.3" font-family="Times,serif" font-size="14.00">name :character varying</text>
<text text-anchor="start" x="339" y="-272.3" font-family="Times,serif" font-size="14.00">created_at :timestamp without time zone</text>
<text text-anchor="start" x="339" y="-257.3" font-family="Times,serif" font-size="14.00">updated_at :timestamp without time zone</text>
</g>
<!-- SubjectCarrerUser -->
<g id="node3" class="node"><title>SubjectCarrerUser</title>
<path fill="none" stroke="black" d="M605,-1C605,-1 825,-1 825,-1 831,-1 837,-7 837,-13 837,-13 837,-125 837,-125 837,-131 831,-137 825,-137 825,-137 605,-137 605,-137 599,-137 593,-131 593,-125 593,-125 593,-13 593,-13 593,-7 599,-1 605,-1"/>
<text text-anchor="middle" x="715" y="-121.8" font-family="Times,serif" font-size="14.00">SubjectCarrerUser</text>
<polyline fill="none" stroke="black" points="593,-114 837,-114 "/>
<text text-anchor="start" x="601" y="-98.8" font-family="Times,serif" font-size="14.00">id :integer</text>
<text text-anchor="start" x="601" y="-83.8" font-family="Times,serif" font-size="14.00">points :integer</text>
<text text-anchor="start" x="601" y="-68.8" font-family="Times,serif" font-size="14.00">subject_id :integer</text>
<text text-anchor="start" x="601" y="-53.8" font-family="Times,serif" font-size="14.00">carrer_user_id :integer</text>
<text text-anchor="start" x="601" y="-38.8" font-family="Times,serif" font-size="14.00">created_at :timestamp without time zone</text>
<text text-anchor="start" x="601" y="-23.8" font-family="Times,serif" font-size="14.00">updated_at :timestamp without time zone</text>
<text text-anchor="start" x="601" y="-8.8" font-family="Times,serif" font-size="14.00">name :character varying</text>
</g>
<!-- Subject -->
<g id="node4" class="node"><title>Subject</title>
<path fill="none" stroke="black" d="M605,-242C605,-242 825,-242 825,-242 831,-242 837,-248 837,-254 837,-254 837,-336 837,-336 837,-342 831,-348 825,-348 825,-348 605,-348 605,-348 599,-348 593,-342 593,-336 593,-336 593,-254 593,-254 593,-248 599,-242 605,-242"/>
<text text-anchor="middle" x="715" y="-332.8" font-family="Times,serif" font-size="14.00">Subject</text>
<polyline fill="none" stroke="black" points="593,-325 837,-325 "/>
<text text-anchor="start" x="601" y="-309.8" font-family="Times,serif" font-size="14.00">id :integer</text>
<text text-anchor="start" x="601" y="-294.8" font-family="Times,serif" font-size="14.00">name :character varying</text>
<text text-anchor="start" x="601" y="-279.8" font-family="Times,serif" font-size="14.00">carrer_id :integer</text>
<text text-anchor="start" x="601" y="-264.8" font-family="Times,serif" font-size="14.00">created_at :timestamp without time zone</text>
<text text-anchor="start" x="601" y="-249.8" font-family="Times,serif" font-size="14.00">updated_at :timestamp without time zone</text>
</g>
<!-- Subject&#45;&gt;SubjectCarrerUser -->
<g id="edge1" class="edge"><title>Subject&#45;&gt;SubjectCarrerUser</title>
<path fill="none" stroke="#f6bc21" d="M715,-233.549C715,-207.055 715,-175.639 715,-147.458"/>
<ellipse fill="none" stroke="#f6bc21" cx="715" cy="-237.765" rx="4" ry="4"/>
<polygon fill="#f6bc21" stroke="#f6bc21" points="715,-147.236 719.5,-137.236 715,-142.236 715,-137.236 715,-137.236 715,-137.236 715,-142.236 710.5,-137.236 715,-147.236 715,-147.236"/>
</g>
<!-- User -->
<g id="node5" class="node"><title>User</title>
<path fill="none" stroke="black" d="M11.5,-174.5C11.5,-174.5 300.5,-174.5 300.5,-174.5 306.5,-174.5 312.5,-180.5 312.5,-186.5 312.5,-186.5 312.5,-403.5 312.5,-403.5 312.5,-409.5 306.5,-415.5 300.5,-415.5 300.5,-415.5 11.5,-415.5 11.5,-415.5 5.5,-415.5 -0.5,-409.5 -0.5,-403.5 -0.5,-403.5 -0.5,-186.5 -0.5,-186.5 -0.5,-180.5 5.5,-174.5 11.5,-174.5"/>
<text text-anchor="middle" x="156" y="-400.3" font-family="Times,serif" font-size="14.00">User</text>
<polyline fill="none" stroke="black" points="-0.5,-392.5 312.5,-392.5 "/>
<text text-anchor="start" x="7.5" y="-377.3" font-family="Times,serif" font-size="14.00">id :integer</text>
<text text-anchor="start" x="7.5" y="-362.3" font-family="Times,serif" font-size="14.00">email :character varying</text>
<text text-anchor="start" x="7.5" y="-347.3" font-family="Times,serif" font-size="14.00">encrypted_password :character varying</text>
<text text-anchor="start" x="7.5" y="-332.3" font-family="Times,serif" font-size="14.00">reset_password_token :character varying</text>
<text text-anchor="start" x="7.5" y="-317.3" font-family="Times,serif" font-size="14.00">reset_password_sent_at :timestamp without time zone</text>
<text text-anchor="start" x="7.5" y="-302.3" font-family="Times,serif" font-size="14.00">remember_created_at :timestamp without time zone</text>
<text text-anchor="start" x="7.5" y="-287.3" font-family="Times,serif" font-size="14.00">sign_in_count :integer</text>
<text text-anchor="start" x="7.5" y="-272.3" font-family="Times,serif" font-size="14.00">current_sign_in_at :timestamp without time zone</text>
<text text-anchor="start" x="7.5" y="-257.3" font-family="Times,serif" font-size="14.00">last_sign_in_at :timestamp without time zone</text>
<text text-anchor="start" x="7.5" y="-242.3" font-family="Times,serif" font-size="14.00">current_sign_in_ip :inet</text>
<text text-anchor="start" x="7.5" y="-227.3" font-family="Times,serif" font-size="14.00">last_sign_in_ip :inet</text>
<text text-anchor="start" x="7.5" y="-212.3" font-family="Times,serif" font-size="14.00">created_at :timestamp without time zone</text>
<text text-anchor="start" x="7.5" y="-197.3" font-family="Times,serif" font-size="14.00">updated_at :timestamp without time zone</text>
<text text-anchor="start" x="7.5" y="-182.3" font-family="Times,serif" font-size="14.00">role :integer</text>
</g>
<!-- User&#45;&gt;CarrerUser -->
<g id="edge2" class="edge"><title>User&#45;&gt;CarrerUser</title>
<path fill="none" stroke="#e3f68b" d="M156,-166.111C156,-157.115 156,-148.259 156,-139.781"/>
<ellipse fill="none" stroke="#e3f68b" cx="156" cy="-170.458" rx="4" ry="4"/>
<polygon fill="#e3f68b" stroke="#e3f68b" points="156,-139.643 160.5,-129.643 156,-134.643 156,-129.643 156,-129.643 156,-129.643 156,-134.643 151.5,-129.644 156,-139.643 156,-139.643"/>
</g>
<!-- ApplicationRecord -->
<g id="node6" class="node"><title>ApplicationRecord</title>
<ellipse fill="none" stroke="black" cx="932" cy="-295" rx="77.0154" ry="18"/>
<text text-anchor="middle" x="932" y="-291.3" font-family="Times,serif" font-size="14.00">ApplicationRecord</text>
</g>
</g>
</svg>
